<svg aria-hidden="true" style="position: absolute; width: 0; height: 0; overflow: hidden;" version="1.1" xmlns="http://www.w3.org/2000/svg" xmlns:xlink="http://www.w3.org/1999/xlink">
<defs>
<symbol id="icon-c-Icon" viewBox="0 0 32 32">
<path fill="none" stroke="#d1d5db" style="stroke: var(--color1, #d1d5db)" stroke-linejoin="round" stroke-linecap="round" stroke-miterlimit="4" stroke-width="3.7647" d="M16 28.549c6.931 0 12.549-5.618 12.549-12.549s-5.618-12.549-12.549-12.549c-6.931 0-12.549 5.618-12.549 12.549s5.618 12.549 12.549 12.549z"></path>
<path fill="none" stroke="#d1d5db" style="stroke: var(--color1, #d1d5db)" stroke-linejoin="round" stroke-linecap="round" stroke-miterlimit="4" stroke-width="3.7647" d="M19.765 12.68c-0.674-0.765-1.566-1.306-2.555-1.551s-2.030-0.184-2.984 0.176c-0.954 0.361-1.775 1.003-2.355 1.842s-0.89 1.834-0.89 2.854c0 1.020 0.31 2.015 0.89 2.854s1.401 1.481 2.355 1.842c0.954 0.36 1.995 0.422 2.984 0.176s1.881-0.787 2.555-1.551"></path>
</symbol>
<symbol id="icon-call" viewBox="0 0 32 32">
<path stroke-linejoin="round" stroke-linecap="round" stroke-miterlimit="4" stroke-width="2" d="M29.333 22.56v4c0.002 0.371-0.075 0.739-0.223 1.079s-0.367 0.646-0.641 0.897c-0.274 0.251-0.597 0.442-0.948 0.561s-0.724 0.163-1.094 0.13c-4.103-0.446-8.044-1.848-11.507-4.093-3.222-2.047-5.953-4.778-8-8-2.253-3.478-3.656-7.439-4.093-11.56-0.033-0.369 0.010-0.74 0.129-1.091s0.308-0.673 0.558-0.947c0.25-0.273 0.553-0.492 0.892-0.641s0.705-0.227 1.075-0.227h4c0.647-0.006 1.274 0.223 1.765 0.645s0.811 1.008 0.902 1.649c0.169 1.28 0.482 2.537 0.933 3.747 0.179 0.477 0.218 0.996 0.112 1.494s-0.353 0.956-0.712 1.319l-1.693 1.693c1.898 3.338 4.662 6.102 8 8l1.693-1.693c0.363-0.358 0.82-0.606 1.319-0.712s1.017-0.067 1.494 0.112c1.21 0.451 2.467 0.764 3.747 0.933 0.648 0.091 1.239 0.418 1.662 0.917s0.648 1.136 0.631 1.79z"></path>
</symbol>
<symbol id="icon-github" viewBox="0 0 32 32">
<path d="M16 2.667c-1.751 0-3.485 0.345-5.102 1.015s-3.088 1.652-4.326 2.89c-2.5 2.501-3.905 5.892-3.905 9.428 0 5.893 3.827 10.893 9.12 12.667 0.667 0.107 0.88-0.307 0.88-0.667v-2.253c-3.693 0.8-4.48-1.787-4.48-1.787-0.613-1.547-1.48-1.96-1.48-1.96-1.213-0.827 0.093-0.8 0.093-0.8 1.333 0.093 2.040 1.373 2.040 1.373 1.16 2.027 3.12 1.427 3.88 1.107 0.12-0.867 0.467-1.453 0.84-1.787-2.96-0.333-6.067-1.48-6.067-6.56 0-1.48 0.507-2.667 1.373-3.613-0.133-0.333-0.6-1.72 0.133-3.52 0 0 1.12-0.36 3.667 1.36 1.053-0.293 2.2-0.44 3.333-0.44s2.28 0.147 3.333 0.44c2.547-1.72 3.667-1.36 3.667-1.36 0.733 1.8 0.267 3.187 0.133 3.52 0.867 0.947 1.373 2.133 1.373 3.613 0 5.093-3.12 6.213-6.093 6.547 0.48 0.413 0.92 1.227 0.92 2.467v3.653c0 0.36 0.213 0.787 0.893 0.667 5.293-1.787 9.107-6.773 9.107-12.667 0-1.751-0.345-3.485-1.015-5.102s-1.652-3.088-2.89-4.326-2.708-2.22-4.326-2.89c-1.618-0.67-3.351-1.015-5.102-1.015z"></path>
</symbol>
<symbol id="icon-heart" viewBox="0 0 32 32">
<path fill="#14a800" d="M29.415 4.545c-1.676-1.676-3.894-2.591-6.262-2.591s-4.593 0.923-6.268 2.598l-0.875 0.875-0.889-0.889c-1.676-1.676-3.908-2.605-6.275-2.605-2.361 0-4.586 0.923-6.255 2.591-1.676 1.676-2.598 3.901-2.591 6.268 0 2.368 0.929 4.586 2.605 6.262l12.74 12.74c0.176 0.176 0.414 0.271 0.644 0.271s0.468-0.088 0.644-0.265l12.767-12.72c1.676-1.676 2.598-3.901 2.598-6.268 0.007-2.368-0.909-4.593-2.585-6.268zM28.113 15.786l-12.123 12.075-12.096-12.096c-1.33-1.33-2.062-3.094-2.062-4.973s0.726-3.643 2.056-4.966c1.323-1.323 3.087-2.056 4.959-2.056 1.879 0 3.65 0.733 4.979 2.062l1.533 1.533c0.36 0.36 0.936 0.36 1.296 0l1.52-1.52c1.33-1.33 3.1-2.062 4.973-2.062s3.636 0.733 4.966 2.056c1.33 1.33 2.056 3.094 2.056 4.973 0.007 1.879-0.726 3.643-2.056 4.973z"></path>
</symbol>
<symbol id="icon-linkedin" viewBox="0 0 32 32">
<path  d="M16.667 4c-6.996 0-12.667 5.671-12.667 12.667s5.671 12.667 12.667 12.667c6.996 0 12.667-5.671 12.667-12.667s-5.671-12.667-12.667-12.667zM13.566 21.917h-2.565v-8.255h2.565v8.255zM12.268 12.649c-0.81 0-1.334-0.574-1.334-1.284 0-0.724 0.54-1.281 1.367-1.281s1.334 0.557 1.35 1.281c0 0.71-0.522 1.284-1.383 1.284zM22.934 21.917h-2.565v-4.575c0-1.065-0.372-1.788-1.3-1.788-0.709 0-1.129 0.489-1.315 0.961-0.069 0.168-0.086 0.405-0.086 0.641v4.759h-2.566v-5.621c0-1.030-0.033-1.892-0.067-2.634h2.229l0.117 1.147h0.051c0.338-0.538 1.165-1.333 2.549-1.333 1.688 0 2.953 1.131 2.953 3.561v4.881z"></path>
</symbol>
<symbol id="icon-mail" viewBox="0 0 32 32">
<path stroke-linejoin="round" stroke-linecap="round" stroke-miterlimit="4" stroke-width="2" d="M26.666 5.333h-21.333c-1.473 0-2.667 1.194-2.667 2.667v16c0 1.473 1.194 2.667 2.667 2.667h21.333c1.473 0 2.667-1.194 2.667-2.667v-16c0-1.473-1.194-2.667-2.667-2.667z"></path>
<path stroke-linejoin="round" stroke-linecap="round" stroke-miterlimit="4" stroke-width="2" d="M29.333 9.334l-11.96 7.6c-0.412 0.258-0.888 0.395-1.373 0.395s-0.962-0.137-1.373-0.395l-11.96-7.6"></path>
</symbol>
<symbol id="icon-locate-Icon" viewBox="0 0 32 32">
<path fill="none" stroke="#d1d5db" style="stroke: var(--color1, #d1d5db)" stroke-linejoin="round" stroke-linecap="round" stroke-miterlimit="4" stroke-width="2.6667" d="M26.667 13.333c0 8-10.667 16-10.667 16s-10.667-8-10.667-16c0-2.829 1.124-5.542 3.124-7.542s4.713-3.124 7.542-3.124c2.829 0 5.542 1.124 7.543 3.124s3.124 4.713 3.124 7.542z"></path>
<path fill="none" stroke="#d1d5db" style="stroke: var(--color1, #d1d5db)" stroke-linejoin="round" stroke-linecap="round" stroke-miterlimit="4" stroke-width="2.6667" d="M16 17.333c2.209 0 4-1.791 4-4s-1.791-4-4-4-4 1.791-4 4c0 2.209 1.791 4 4 4z"></path>
</symbol>
<symbol id="icon-telegram" viewBox="0 0 32 32">
<path d="M16 2.667c-7.36 0-13.333 5.973-13.333 13.333s5.973 13.333 13.333 13.333c7.36 0 13.333-5.973 13.333-13.333s-5.973-13.333-13.333-13.333zM22.187 11.733c-0.2 2.107-1.067 7.227-1.507 9.587-0.187 1-0.56 1.333-0.907 1.373-0.773 0.067-1.36-0.507-2.107-1-1.173-0.773-1.84-1.253-2.973-2-1.32-0.867-0.467-1.347 0.293-2.12 0.2-0.2 3.613-3.307 3.68-3.587 0.009-0.042 0.008-0.086-0.004-0.128s-0.033-0.080-0.063-0.112c-0.080-0.067-0.187-0.040-0.28-0.027-0.12 0.027-1.987 1.267-5.627 3.72-0.533 0.36-1.013 0.547-1.44 0.533-0.48-0.013-1.387-0.267-2.067-0.493-0.84-0.267-1.493-0.413-1.44-0.88 0.027-0.24 0.36-0.48 0.987-0.733 3.893-1.693 6.48-2.813 7.773-3.347 3.707-1.547 4.467-1.813 4.973-1.813 0.107 0 0.36 0.027 0.52 0.16 0.133 0.107 0.173 0.253 0.187 0.36-0.013 0.080 0.013 0.32 0 0.507z"></path>
</symbol><symbol id="icon-axios" viewBox="0 0 32 32">
<path fill="#fff" style="fill: var(--color1, #fff)" d="M0 0h32v32h-32v-32z"></path>
<path fill="#000" style="fill: var(--color2, #000)" d="M14.758 3.866v25.863l-2.819 2.27v-21.515h-5.306l8.124-6.619zM19.912 0v21.023h5.454l-8.267 6.785v-25.849l2.813-1.959z"></path>
</symbol>
<symbol id="icon-css" viewBox="0 0 32 32">
<path fill="#1572b6" style="fill: var(--color3, #1572b6)" d="M5.902 27.201l-2.246-25.201h24.688l-2.249 25.197-10.11 2.803-10.083-2.799z"></path>
<path fill="#33a9dc" style="fill: var(--color4, #33a9dc)" d="M16 27.858l8.17-2.265 1.922-21.532h-10.092v23.797z"></path>
<path fill="#fff" style="fill: var(--color1, #fff)" d="M16 13.191h4.090l0.282-3.165h-4.372v-3.091h7.75l-0.074 0.829-0.759 8.518h-6.917v-3.091z"></path>
<path fill="#ebebeb" style="fill: var(--color5, #ebebeb)" d="M16.019 21.218l-0.014 0.004-3.442-0.93-0.22-2.465h-3.103l0.433 4.853 6.331 1.758 0.015-0.004v-3.216z"></path>
<path fill="#fff" style="fill: var(--color1, #fff)" d="M19.827 16.151l-0.372 4.139-3.447 0.93v3.216l6.336-1.756 0.047-0.522 0.537-6.007h-3.101z"></path>
<path fill="#ebebeb" style="fill: var(--color5, #ebebeb)" d="M16.011 6.935v3.091h-7.466l-0.062-0.695-0.141-1.567-0.074-0.829h7.743z"></path>
<path fill="#ebebeb" style="fill: var(--color5, #ebebeb)" d="M16 13.191v3.091h-3.399l-0.062-0.695-0.14-1.567-0.074-0.829h3.675z"></path>
</symbol>
<symbol id="icon-figma" viewBox="0 0 32 32">
<path fill="#1abcfe" style="fill: var(--color6, #1abcfe)" d="M17.1 16c0-2.578 2.038-4.666 4.55-4.666 2.514 0 4.55 2.086 4.55 4.666 0 2.578-2.036 4.666-4.55 4.666-2.51 0-4.55-2.086-4.55-4.666z"></path>
<path fill="#0acf83" style="fill: var(--color7, #0acf83)" d="M8 25.334c0-2.578 2.038-4.668 4.55-4.668h4.55v4.668c0 2.576-2.038 4.666-4.55 4.666s-4.55-2.090-4.55-4.666z"></path>
<path fill="#ff7262" style="fill: var(--color8, #ff7262)" d="M17.1 2v9.334h4.55c2.514 0 4.55-2.090 4.55-4.668 0-2.576-2.036-4.666-4.55-4.666h-4.55z"></path>
<path fill="#f24e1e" style="fill: var(--color9, #f24e1e)" d="M8 6.666c0 2.578 2.038 4.668 4.55 4.668h4.55v-9.334h-4.55c-2.512 0-4.55 2.090-4.55 4.666z"></path>
<path fill="#a259ff" style="fill: var(--color10, #a259ff)" d="M8 16c0 2.578 2.038 4.666 4.55 4.666h4.55v-9.332h-4.55c-2.512 0-4.55 2.086-4.55 4.666z"></path>
</symbol>
<symbol id="icon-git" viewBox="0 0 32 32">
<path fill="#ee513b" style="fill: var(--color11, #ee513b)" d="M2.585 17.413c-0.78-0.78-0.78-2.046 0-2.826l12.001-12.001c0.78-0.78 2.046-0.78 2.826 0l12.001 12.001c0.78 0.78 0.78 2.046 0 2.826l-12.001 12.001c-0.78 0.78-2.046 0.78-2.826 0l-12.001-12.001z"></path>
<path fill="#fff" style="fill: var(--color1, #fff)" d="M12.149 5.062l-1.215 1.215 3.139 3.139c-0.127 0.272-0.198 0.576-0.198 0.897 0 0.91 0.572 1.686 1.375 1.989v7.679c-0.803 0.303-1.375 1.079-1.375 1.989 0 1.174 0.951 2.125 2.125 2.125s2.125-0.951 2.125-2.125c0-0.825-0.47-1.54-1.156-1.892v-7.765l3 3.001c-0.121 0.267-0.188 0.563-0.188 0.875 0 1.174 0.951 2.125 2.125 2.125s2.125-0.951 2.125-2.125c0-1.174-0.951-2.125-2.125-2.125-0.228 0-0.448 0.036-0.654 0.102l-3.223-3.223c0.062-0.199 0.095-0.411 0.095-0.63 0-1.174-0.951-2.125-2.125-2.125-0.219 0-0.431 0.033-0.63 0.095l-3.221-3.221z"></path>
</symbol>
<symbol id="icon-html5" viewBox="0 0 32 32">
<path fill="#e44d26" style="fill: var(--color12, #e44d26)" d="M6 28l-2-25h24l-2 25-10 3-10-3z"></path>
<path fill="#f16529" style="fill: var(--color13, #f16529)" d="M26 5h-10v24.5l8-2.5 2-22z"></path>
<path fill="#fff" style="fill: var(--color1, #fff)" d="M9.5 17.5l-1-9.5h15.5l-0.5 3h-12l0.5 3.5h11l-1 9.5-6 2-6-2-0.5-5h3l0.5 2.5 3 1 3-1 0.5-4h-10z"></path>
</symbol>
<symbol id="icon-storybook" viewBox="0 0 32 32">
<path fill="#ff4081" style="fill: var(--color14, #ff4081)" d="M5.791 27.62l-0.855-22.758c-0.027-0.752 0.551-1.388 1.301-1.434l15.168-0.949 1.159 0.392 1.506-0.559 1.52-0.095c0.763-0.049 1.422 0.531 1.471 1.294 0.002 0.030 0.003 0.060 0.003 0.090v24.797c-0.001 0.766-0.622 1.386-1.388 1.386-0.020 0-0.041-0.001-0.060-0.001l-18.502-0.831c-0.721-0.032-1.296-0.611-1.323-1.332z"></path>
<path fill="#fff" style="fill: var(--color1, #fff)" d="M24.069 2.313l-2.663 0.165-0.129 3.125c-0.005 0.114 0.084 0.21 0.198 0.215 0.048 0.002 0.095-0.013 0.133-0.041l1.213-0.921 1.025 0.808c0.089 0.071 0.22 0.056 0.29-0.033 0.030-0.039 0.046-0.087 0.045-0.136l-0.11-3.182-0.001-0.001zM21.996 12.776c-0.486 0.379-4.12 0.637-4.12 0.098 0.078-2.058-0.843-2.148-1.356-2.148-0.485 0-1.304 0.146-1.304 1.249 0 1.123 1.197 1.757 2.601 2.502 1.995 1.057 4.411 2.338 4.411 5.558 0 3.088-2.509 4.792-5.707 4.792-3.301 0-6.187-1.336-5.861-5.966 0.128-0.543 4.326-0.414 4.326 0-0.053 1.911 0.383 2.473 1.483 2.473 0.845 0 1.228-0.466 1.228-1.249 0-1.187-1.246-1.887-2.681-2.692-1.942-1.090-4.228-2.374-4.228-5.32 0-2.939 2.021-4.899 5.629-4.899s5.578 1.931 5.578 5.602z"></path>
</symbol>
<symbol id="icon-sass" viewBox="0 0 32 32">
<path fill="#f06292" style="fill: var(--color15, #f06292)" d="M27.925 20.158c-1.025 0.005-1.913 0.251-2.657 0.619-0.272-0.543-0.548-1.021-0.594-1.377-0.054-0.415-0.117-0.663-0.051-1.157s0.351-1.194 0.347-1.247c-0.004-0.053-0.064-0.304-0.655-0.309s-1.097 0.114-1.157 0.27c-0.059 0.156-0.173 0.507-0.244 0.874-0.103 0.536-1.181 2.449-1.792 3.449-0.2-0.391-0.37-0.735-0.405-1.007-0.054-0.415-0.117-0.663-0.051-1.157s0.351-1.194 0.347-1.247-0.064-0.304-0.655-0.309c-0.591-0.004-1.097 0.114-1.157 0.27s-0.123 0.521-0.244 0.874c-0.121 0.353-1.553 3.543-1.928 4.37-0.191 0.421-0.357 0.76-0.475 0.991l-0.001-0.001c0 0-0.007 0.015-0.019 0.041-0.101 0.197-0.16 0.305-0.16 0.305s0.001 0.001 0.002 0.004c-0.080 0.145-0.165 0.279-0.207 0.279-0.029 0-0.089-0.385 0.013-0.913 0.213-1.107 0.725-2.832 0.72-2.892-0.003-0.031 0.095-0.331-0.334-0.489-0.417-0.153-0.566 0.102-0.604 0.103-0.037 0.001-0.064 0.090-0.064 0.090s0.465-1.941-0.887-1.941c-0.845 0-2.016 0.925-2.593 1.763-0.364 0.199-1.143 0.624-1.969 1.078-0.317 0.175-0.641 0.353-0.949 0.522-0.021-0.023-0.042-0.046-0.063-0.069-1.639-1.749-4.669-2.985-4.541-5.337 0.047-0.855 0.344-3.105 5.822-5.835 4.487-2.236 8.080-1.621 8.701-0.257 0.887 1.949-1.92 5.569-6.58 6.092-1.775 0.199-2.711-0.489-2.943-0.745-0.245-0.27-0.281-0.282-0.373-0.231-0.149 0.083-0.055 0.321 0 0.463 0.139 0.362 0.71 1.004 1.683 1.324 0.857 0.281 2.941 0.435 5.462-0.54 2.824-1.092 5.029-4.131 4.381-6.67-0.659-2.583-4.941-3.432-8.995-1.992-2.415 0.857-5.027 2.203-6.905 3.959-2.233 2.088-2.589 3.906-2.442 4.665 0.521 2.699 4.241 4.456 5.73 5.758-0.073 0.041-0.143 0.079-0.205 0.113-0.747 0.369-3.582 1.853-4.291 3.421-0.805 1.778 0.128 3.054 0.745 3.226 1.913 0.532 3.875-0.425 4.931-1.999s0.926-3.621 0.442-4.556c-0.006-0.011-0.013-0.023-0.019-0.035 0.193-0.114 0.389-0.23 0.584-0.345 0.38-0.223 0.753-0.431 1.077-0.607-0.181 0.496-0.314 1.091-0.383 1.951-0.081 1.009 0.333 2.314 0.874 2.827 0.239 0.226 0.525 0.231 0.707 0.231 0.63 0 0.917-0.524 1.234-1.144 0.388-0.76 0.733-1.645 0.733-1.645s-0.432 2.391 0.745 2.391c0.429 0 0.861-0.557 1.053-0.84 0.001 0.003 0.001 0.005 0.001 0.005s0.011-0.019 0.033-0.055c0.045-0.068 0.070-0.111 0.070-0.111s0.001-0.005 0.002-0.013c0.173-0.299 0.555-0.982 1.129-2.108 0.741-1.455 1.452-3.277 1.452-3.277s0.066 0.445 0.283 1.183c0.127 0.433 0.398 0.913 0.612 1.373-0.172 0.239-0.277 0.375-0.277 0.375s0.001 0.003 0.003 0.007c-0.137 0.183-0.291 0.379-0.453 0.571-0.585 0.697-1.282 1.493-1.375 1.722-0.11 0.271-0.084 0.469 0.129 0.63 0.155 0.117 0.431 0.135 0.72 0.116 0.526-0.035 0.895-0.166 1.078-0.245 0.285-0.101 0.616-0.259 0.927-0.487 0.574-0.422 0.92-1.025 0.887-1.825-0.019-0.441-0.159-0.877-0.337-1.289 0.052-0.075 0.104-0.151 0.157-0.227 0.905-1.323 1.607-2.776 1.607-2.776s0.066 0.445 0.283 1.183c0.109 0.373 0.326 0.78 0.521 1.179-0.851 0.691-1.378 1.495-1.561 2.021-0.339 0.975-0.073 1.416 0.424 1.517 0.225 0.045 0.544-0.058 0.783-0.159 0.298-0.099 0.656-0.263 0.991-0.509 0.574-0.422 1.126-1.013 1.093-1.812-0.015-0.364-0.114-0.725-0.248-1.072 0.721-0.301 1.655-0.467 2.844-0.329 2.551 0.298 3.051 1.891 2.956 2.557s-0.631 1.033-0.81 1.144c-0.179 0.111-0.233 0.149-0.219 0.231 0.022 0.119 0.105 0.115 0.257 0.089 0.21-0.035 1.339-0.542 1.388-1.773 0.061-1.564-1.436-3.28-4.087-3.266zM8.26 26.787c-0.845 0.922-2.025 1.27-2.532 0.977-0.547-0.317-0.33-1.674 0.707-2.653 0.632-0.596 1.448-1.145 1.989-1.483 0.123-0.074 0.304-0.183 0.524-0.315 0.037-0.021 0.057-0.032 0.057-0.032l-0.001-0.001c0.043-0.025 0.086-0.051 0.131-0.079 0.378 1.393 0.012 2.619-0.875 3.586zM14.417 22.602c-0.294 0.717-0.91 2.553-1.285 2.455-0.322-0.085-0.518-1.48-0.064-2.853 0.228-0.691 0.716-1.517 1.003-1.838 0.461-0.516 0.969-0.685 1.093-0.475 0.157 0.267-0.561 2.262-0.746 2.712zM19.503 25.029c-0.125 0.065-0.239 0.106-0.292 0.075-0.039-0.023 0.051-0.109 0.051-0.109s0.636-0.685 0.887-0.996c0.146-0.181 0.315-0.397 0.499-0.637 0.001 0.024 0.002 0.048 0.002 0.071-0.001 0.82-0.793 1.373-1.147 1.596zM23.421 24.136c-0.093-0.066-0.077-0.28 0.229-0.947 0.12-0.262 0.395-0.703 0.871-1.124 0.055 0.173 0.089 0.339 0.088 0.494-0.006 1.032-0.742 1.417-1.187 1.577z"></path>
</symbol>
<symbol id="icon-javascript" viewBox="0 0 32 32">
<path fill="#f7df1e" style="fill: var(--color16, #f7df1e)" d="M0 0h32v32h-32v-32z"></path>
<path fill="#000" style="fill: var(--color2, #000)" d="M8.414 26.742l2.449-1.482c0.472 0.838 0.902 1.546 1.933 1.546 0.988 0 1.611-0.387 1.611-1.89v-10.225h3.007v10.267c0 3.115-1.826 4.532-4.489 4.532-2.406 0-3.802-1.246-4.511-2.749z"></path>
<path fill="#000" style="fill: var(--color2, #000)" d="M19.048 26.419l2.449-1.418c0.645 1.053 1.482 1.826 2.964 1.826 1.246 0 2.041-0.623 2.041-1.482 0-1.031-0.816-1.396-2.191-1.997l-0.752-0.322c-2.17-0.923-3.609-2.083-3.609-4.532 0-2.255 1.718-3.974 4.404-3.974 1.912 0 3.287 0.666 4.274 2.406l-2.341 1.504c-0.516-0.924-1.074-1.289-1.933-1.289-0.881 0-1.439 0.558-1.439 1.289 0 0.902 0.559 1.267 1.847 1.826l0.752 0.322c2.556 1.096 3.995 2.212 3.995 4.726 0 2.707-2.127 4.189-4.983 4.189-2.792 0-4.597-1.332-5.477-3.072z"></path>
</symbol>
<symbol id="icon-material-ui" viewBox="0 0 32 32">
<path fill="#fff" style="fill: var(--color1, #fff)" d="M0 0h32v32h-32v-32z"></path>
<path fill="#000" style="fill: var(--color2, #000)" d="M0 3.3v13.853l4 2.311v-9.237l8 4.62 8-4.62v4.62l-8 4.617v4.619l8 4.617 12-6.927v-9.237l-4 2.311v4.617l-8 4.619-4-2.309 8-4.62v-13.853l-12 6.927-12-6.927zM32 3.3l-4 2.307v4.62l4-2.309v-4.617z"></path>
</symbol>
<symbol id="icon-parcel" viewBox="0 0 32 32">
<path fill="#000" style="fill: var(--color2, #000)" d="M17.564 27.854l8.782-5.554c0.032-0.020 0.075-0.011 0.095 0.021s0.011 0.075-0.021 0.095l-8.811 5.571c-0.011 0.008-0.024 0.011-0.036 0.011l-0.009-0.145z"></path>
<path fill="#000" style="fill: var(--color2, #000)" d="M17.573 27.999c-0.008 0-0.016-0.001-0.024-0.004l-11.973-4.462c-0.036-0.014-0.054-0.052-0.040-0.089s0.053-0.054 0.089-0.040l11.942 4.45 0.006 0.145z"></path>
<path fill="#e8b67f" style="fill: var(--color17, #e8b67f)" d="M30.138 6.664l-1.382 2.289-5.862 2.492-4.991 4.667c-0.096 0.096-0.161 0.234-0.172 0.31-0.005 0.026-0.027 0.015-0.049 0.014-0.023-0.001-0.054 0.008-0.056-0.020-0.003-0.1-0.014-0.211-0.175-0.311l-4.325-2.802-9.437-2.42-2.724-4.231 0.041-0.047 0.002-0.004 10.225-2.657c0.015-0.005 0.018-0.003 0.024 0.006l3.556 5.326c0.075 0.11 0.082 0.178 0.082 0.226h0.064c0-0.004 0-0.008 0-0.011 0-0.005 0-0.011 0.001-0.018 0-0.004 0.001-0.008 0.001-0.012 0.001-0.005 0.001-0.010 0.002-0.015s0.001-0.010 0.002-0.016c0.004-0.018 0.009-0.037 0.014-0.057 0.001-0.006 0.004-0.012 0.005-0.018 0.006-0.020 0.012-0.041 0.020-0.061 0.004-0.008 0.006-0.016 0.010-0.024 0.010-0.025 0.020-0.047 0.031-0.068 0.010-0.020 0.020-0.036 0.030-0.050l3.144-4.572c0.008-0.011 0.011-0.016 0.027-0.014l11.871 2.042 0.020 0.056z"></path>
<path fill="#000" style="fill: var(--color2, #000)" d="M14.948 14.483h-0.001l-1.822-1.181-5.137-1.317 6.907-2.484 0.019-0.036v0.036l0.035 4.982z"></path>
<path fill="#000" style="fill: var(--color2, #000)" d="M14.895 9.501l-6.907 2.482-4.3-1.104-2.724-4.231 0.044-0.051 10.225-2.657c0.015-0.005 0.017-0.003 0.024 0.006l3.556 5.326c0.075 0.113 0.082 0.18 0.082 0.229z"></path>
<path fill="#000" style="fill: var(--color2, #000)" d="M14.919 9.765l-6.531 2.347-1.019-0.261 7.378-2.652 0.069 0.102c0.075 0.11 0.082 0.178 0.082 0.226h0.019l0.001 0.238z"></path>
<path fill="#d2a679" style="fill: var(--color18, #d2a679)" d="M3.781 10.905l-0.092-0.024-2.724-4.231 0.041-0.048 2.775 4.302z"></path>
<path fill="#000" style="fill: var(--color2, #000)" d="M23.202 11.313l-0.309 0.131-4.991 4.667c-0.096 0.096-0.161 0.234-0.172 0.31-0.005 0.026-0.027 0.015-0.049 0.014-0.023-0.001-0.054 0.008-0.056-0.020-0.003-0.1-0.014-0.211-0.175-0.311l-2.501-1.621-0.034-4.981v-0.036l0.046 0.036 8.241 1.811z"></path>
<path fill="#000" style="fill: var(--color2, #000)" d="M30.138 6.664l-1.382 2.289-5.552 2.36-8.243-1.811c-0.005-0.064 0.039-0.209 0.086-0.301 0.010-0.020 0.020-0.036 0.030-0.050l3.144-4.572c0.008-0.011 0.011-0.016 0.027-0.014l11.871 2.042 0.020 0.058z"></path>
<path fill="#000" style="fill: var(--color2, #000)" d="M23.7 11.101l-0.806 0.342-0.104 0.1-7.877-1.741 0.036-0.303h0.010c-0.005-0.064 0.039-0.209 0.086-0.301l8.655 1.902z"></path>
<path fill="#000" style="fill: var(--color2, #000)" opacity="0.75" d="M15.132 9.539v5.064l-0.184-0.119h-0.001l-0.241-0.158v-4.757l0.189-0.068h0.064l0.174 0.037z"></path>
<path fill="#bf9064" style="fill: var(--color19, #bf9064)" d="M17.524 27.918l-11.983-4.471c-0.067-0.029-0.077-0.093-0.081-0.171 0 0-0.515-10.212-0.516-10.213-0.001-0.026 0.031-0.043 0.029-0.059-0.009-0.039-0.082-0.185-0.106-0.2l-4.866-2.765 0.041-0.094 13.083 3.357 4.324 2.801c0.161 0.1 0.174 0.211 0.175 0.311 0.001 0.027 0.034 0.019 0.056 0.020s0.044 0.012 0.049-0.014c0.011-0.076 0.076-0.214 0.172-0.309l4.991-4.667 9.051-3.847 0.055 0.076-4.886 4.294c-0.095 0.095-0.139 0.211-0.12 0.259l-0.5 10.008c-0.008 0.064-0.038 0.082-0.101 0.126l-8.76 5.545c-0.035 0.023-0.073 0.029-0.106 0.012z"></path>
<path fill="#bd8f63" style="fill: var(--color20, #bd8f63)" d="M17.679 16.435l-0.086 11.488c-0.024 0.006-0.047 0.005-0.070-0.005l-11.983-4.47c-0.067-0.029-0.077-0.094-0.081-0.171 0 0-0.516-10.212-0.516-10.213v-0.002c0-0.002 0-0.005 0.001-0.008 0-0.002 0.001-0.004 0.003-0.005 0.001-0.002 0.003-0.004 0.004-0.006s0.003-0.004 0.004-0.006c0.005-0.008 0.013-0.015 0.015-0.021 0.001-0.001 0.001-0.002 0.001-0.004 0 0 0 0 0-0.001l12.655 3.41c0.005 0.023 0.035 0.014 0.055 0.015z"></path>
<path fill="#000" style="fill: var(--color2, #000)" opacity="0.54" d="M17.594 27.889v0.032c-0.024 0.006-0.047 0.005-0.070-0.005l-11.983-4.47c-0.048-0.020-0.066-0.059-0.075-0.106l12.128 4.549z"></path>
<path fill="#322214" style="fill: var(--color21, #322214)" d="M12.176 20.921l4.64 1.517-0.011 4.525-4.554-1.672-0.075-4.37zM14.501 23.961l0.011 2.096 2.247 0.826 0-2.137-2.259-0.785zM15.165 24.638l0.454 0.723 0.445-0.39 0.077 0.088-0.459 0.402 0.46 0.732-0.067 0.042-0.453-0.722-0.443 0.388-0.077-0.088 0.457-0.4-0.461-0.733 0.067-0.042zM16.502 25.452v0.206l0.119 0.039v0.232l-0.119-0.047v0.188l-0.26-0.395 0.26-0.223zM16.102 25.201l0.091 0.029v0.824l-0.091-0.032v-0.82zM12.267 23.184l0.034 2.064 2.147 0.785-0.012-2.091-2.169-0.758zM15.624 25.644l0.235 0.379-0.469-0.17 0.234-0.209zM15.987 25.297v0.537l-0.244-0.344 0.244-0.194zM15.057 24.818l0.090 0.030v0.822l-0.090-0.031v-0.821zM15.259 25.039l0.232 0.359-0.232 0.179v-0.538zM13.317 24.043l0.089 0.029 0 0.053c0.264 0.106 0.525 0.371 0.651 0.783-0.082-0.139-0.155-0.165-0.284-0.121-0.047-0.099-0.188-0.151-0.271-0.099-0.023-0.044-0.056-0.076-0.093-0.097l0.004 0.785c0 0.073-0.050 0.137-0.174 0.113-0.113-0.027-0.159-0.114-0.146-0.261l0.063 0.010c0 0.099 0.008 0.155 0.082 0.172 0.064 0.015 0.092-0.009 0.092-0.067l-0.008-0.778c-0.036-0.003-0.068 0.006-0.092 0.027-0.029-0.073-0.165-0.17-0.267-0.098-0.072-0.115-0.209-0.159-0.285-0.075 0.097-0.294 0.362-0.398 0.639-0.323l-0-0.052zM14.739 24.809l0.254 0.4-0.251 0.209 0.005-0.196-0.123-0.029v-0.227l0.115 0.043v-0.199zM15.383 24.895l0.475 0.172-0.238 0.209-0.237-0.381zM14.497 21.746l0.005 2.137 2.259 0.787v-2.184l-2.264-0.741zM14.918 23.592l1.35 0.461v0.269l-1.35-0.465v-0.265zM13.756 24.102c0.009 0.009 0.009 0.102-0.020 0.124-0.014 0.006-0.035 0.008-0.053-0.006s-0.027-0.034-0.020-0.064 0.082-0.063 0.092-0.054zM13.881 23.888c0.010 0.009 0.010 0.102-0.020 0.124-0.014 0.006-0.035 0.008-0.052-0.006s-0.027-0.034-0.020-0.064 0.082-0.063 0.092-0.054zM13.531 23.879c0.010 0.009 0.010 0.102-0.020 0.124-0.014 0.006-0.035 0.008-0.053-0.006s-0.027-0.034-0.020-0.064 0.082-0.063 0.092-0.054zM13.177 23.828c0.010 0.009 0.010 0.102-0.020 0.124-0.014 0.006-0.035 0.008-0.053-0.006s-0.027-0.034-0.020-0.064 0.082-0.063 0.092-0.054zM15.961 22.423l0.328 0.646-0.224-0.076v0.936l-0.224-0.078 0.001-0.929-0.223-0.073 0.341-0.427zM12.225 21.001l0.039 2.109 2.174 0.747-0.019-2.136-2.194-0.72zM15.222 22.177l0.328 0.646-0.224-0.076v0.936l-0.224-0.077 0.002-0.929-0.224-0.073 0.341-0.427zM12.711 21.424l0.178 0.059 0.082 0.299-0.092-0.006 0.264 0.637-0.136-0.525 0.078-0.001-0.079-0.366 0.916 0.302v0.504c0 0.191-0.207 0.433-0.5 0.313l0.001 0.506 0.42 0.27-1.016-0.352 0.409 0.020-0.008-0.501c-0.29-0.086-0.5-0.435-0.5-0.647l-0.016-0.51z"></path>
<path fill="#000" style="fill: var(--color2, #000)" d="M17.679 16.435c-0.050 0.001-0.087 0.067-0.089 0.128l-0.011 0.005-12.637-3.505c-0.001-0.024 0.026-0.039 0.029-0.054 0.001-0.001 0.001-0.002 0-0.004-0.009-0.039-0.082-0.185-0.106-0.2l-4.865-2.766 0.041-0.094 13.083 3.356 4.324 2.801c0.161 0.101 0.174 0.211 0.175 0.311 0 0.001 0 0.004 0.001 0.005 0.005 0.024 0.035 0.015 0.055 0.016z"></path>
<path fill="#cd9c6b" style="fill: var(--color22, #cd9c6b)" d="M27.113 11.966c-0.095 0.095-0.139 0.211-0.12 0.259l-9.203 4.355-0.019-0.015c-0.001-0.073-0.047-0.121-0.082-0.129 0.019 0.003 0.036 0.009 0.041-0.015 0.003-0.015 0.006-0.032 0.012-0.051 0.005-0.016 0.012-0.034 0.021-0.052 0.026-0.060 0.066-0.125 0.117-0.183 0.008-0.008 0.015-0.016 0.023-0.024l4.991-4.667 9.051-3.847 0.055 0.076-4.887 4.294z"></path>
<path fill="#000" style="fill: var(--color2, #000)" d="M12 17.58c0.014 0.004 0.019 0.005 0.019-0.006l-0.047-2.542c-0.004-0.086-0.025-0.256-0.129-0.325l-4.609-2.8-2.16-0.557 4.684 2.799c0.117 0.078 0.127 0.222 0.133 0.33l0.068 2.472c0 0.012 0.002 0.015 0.011 0.019l2.031 0.611z"></path>
<path fill="#d4a271" style="fill: var(--color23, #d4a271)" d="M17.679 16.435c-0.051 0.001-0.089 0.071-0.089 0.133-0.001 0.005-0.010 0.004-0.011 0-0.010-0.136-0.066-0.289-0.14-0.343l-4.359-2.81 0.043-0.114h0.001l4.324 2.801c0.161 0.101 0.174 0.211 0.175 0.311 0 0.001 0 0.004 0.001 0.005 0.005 0.024 0.035 0.015 0.055 0.016z"></path>
<path fill="#deb37e" style="fill: var(--color24, #deb37e)" d="M13.123 13.302l-0.043 0.113-13.081-3.376 0.041-0.092 13.082 3.356z"></path>
<path fill="#dbad77" style="fill: var(--color25, #dbad77)" d="M26.994 12.225l-0.5 10.008c-0.008 0.064-0.038 0.082-0.101 0.126l-8.76 5.545c-0.012 0.009-0.026 0.014-0.039 0.017l0.086-11.488c0.023 0.001 0.044 0.012 0.049-0.014 0-0.004 0.001-0.006 0.001-0.010l9.261-4.196c0 0.006 0.001 0.009 0.003 0.011z"></path>
<path fill="#000" style="fill: var(--color2, #000)" opacity="0.54" d="M26.494 22.229v0.005c-0.008 0.064-0.038 0.082-0.101 0.126l-8.76 5.545c-0.012 0.009-0.026 0.014-0.039 0.017v-0.032l8.9-5.661z"></path>
<path fill="#322214" style="fill: var(--color21, #322214)" d="M26.33 17.875l-0.2 4.075-2.912 1.814 0.15-4.241 2.962-1.647zM24.773 20.824l-1.447 0.851-0.069 2.006 1.441-0.896 0.075-1.961zM24.082 21.686l-0.003 0.068c0.173-0.086 0.336-0.026 0.405 0.26-0.047-0.066-0.134-0.040-0.191 0.095-0.026-0.056-0.16-0.010-0.18 0.108-0.011-0.019-0.030-0.026-0.052-0.024l-0.032 0.774c-0.003 0.066-0.006 0.137-0.090 0.189-0.039 0.017-0.141 0.031-0.128-0.113l0.049-0.038c-0.004 0.091 0.020 0.119 0.070 0.089 0.060-0.036 0.049-0.094 0.051-0.148l0.027-0.733c-0.035 0.023-0.067 0.064-0.076 0.112-0.015-0.045-0.16-0.017-0.177 0.111-0.041-0.055-0.154-0.001-0.196 0.137 0.078-0.36 0.272-0.659 0.465-0.788l0.002-0.059 0.055-0.040zM26.194 19.984l-1.38 0.816-0.076 1.966 1.365-0.859 0.091-1.924zM25.768 20.647l0.040 0.038-0.301 0.682 0.248 0.343-0.040 0.085-0.247-0.339-0.297 0.675-0.041-0.038 0.303-0.686-0.257-0.351 0.045-0.085 0.251 0.347 0.296-0.671zM24.928 21.431l0.156 0.19-0.166 0.358v-0.157l-0.070 0.043 0.004-0.204 0.070-0.041 0.006-0.187zM25.198 21.183l-0.032 0.754-0.056 0.038 0.031-0.751 0.058-0.040zM25.462 21.577l0.134 0.176-0.287 0.175 0.154-0.351zM23.931 21.632c0.006 0 0.003 0.086-0.019 0.129-0.008 0.015-0.021 0.031-0.032 0.032s-0.016-0.011-0.010-0.044c0.006-0.032 0.055-0.117 0.061-0.117zM25.261 21.286l0.132 0.164-0.155 0.306 0.023-0.47zM24.311 21.476c0.005 0.001 0.001 0.087-0.019 0.129-0.008 0.015-0.021 0.031-0.032 0.032s-0.016-0.011-0.010-0.044c0.006-0.032 0.055-0.117 0.061-0.117zM24.866 18.746l-1.462 0.82-0.076 2.046 1.451-0.855 0.087-2.011zM25.829 20.799l-0.035 0.752-0.050 0.032 0.034-0.751 0.051-0.034zM24.173 21.419c0.006 0 0.003 0.086-0.019 0.129-0.008 0.015-0.021 0.031-0.032 0.032s-0.016-0.011-0.010-0.044c0.006-0.032 0.055-0.117 0.061-0.117zM25.701 21.018l-0.020 0.48-0.13-0.155 0.15-0.325zM26.011 20.789l-0.008 0.185 0.073-0.040-0.009 0.205-0.070 0.041-0.003 0.169-0.151-0.181 0.168-0.379zM24.407 21.172c0.006 0 0.003 0.086-0.019 0.129-0.008 0.015-0.021 0.031-0.032 0.032s-0.016-0.011-0.010-0.044c0.006-0.032 0.055-0.117 0.061-0.117zM25.629 20.882l-0.155 0.355-0.134-0.181 0.289-0.174zM24.526 19.181l-0.019 0.515c-0.008 0.175-0.148 0.492-0.356 0.625l-0.023 0.486 0.279-0.060-0.679 0.392 0.282-0.269 0.015-0.477c-0.181 0.104-0.326-0.089-0.317-0.284l0.016-0.473 0.122-0.066 0.040 0.227-0.066 0.054 0.146 0.424-0.056-0.386 0.050-0.058-0.039-0.304 0.604-0.348zM26.3 17.948l-1.4 0.782-0.087 2.011 1.387-0.83 0.1-1.964zM25.936 19.682l-0.017 0.239-0.82 0.485 0.011-0.241 0.826-0.483zM25.355 18.651l0.181 0.382-0.136 0.076-0.041 0.859-0.13 0.075 0.025-0.859-0.131 0.079 0.232-0.612zM25.811 18.398l0.176 0.376-0.145 0.081-0.030 0.852-0.139 0.078 0.044-0.859-0.136 0.078 0.23-0.606z"></path>
<path fill="#d7aa77" style="fill: var(--color26, #d7aa77)" d="M22.967 11.542l-4.949 4.6c-0.14 0.134-0.233 0.334-0.229 0.438-0.003 0.005-0.015 0.009-0.020 0 0.006-0.080-0.045-0.135-0.082-0.144 0.019 0.003 0.036 0.009 0.041-0.015 0.003-0.015 0.006-0.032 0.012-0.051 0.005-0.016 0.012-0.034 0.021-0.052 0.030-0.067 0.079-0.145 0.139-0.205l4.991-4.667 0.075 0.098z"></path>
<path fill="#000" style="fill: var(--color2, #000)" d="M21.876 17.122c0 0.014 0.006 0.020 0.015 0.016l1.486-0.762c0.003-0.001 0.004-0.004 0.005-0.009l0.082-2.436c0.003-0.134 0.078-0.266 0.18-0.357l4.936-4.436-1.502 0.644-4.961 4.495c-0.128 0.125-0.171 0.272-0.174 0.397l-0.067 2.449z"></path>
<path fill="#f8ce93" style="fill: var(--color27, #f8ce93)" d="M22.967 11.542l9.032-3.87-0.055-0.075-9.051 3.846 0.074 0.099z"></path>
</symbol>
<symbol id="icon-react" viewBox="0 0 32 32">
<path fill="#00d8ff" style="fill: var(--color28, #00d8ff)" d="M15.975 18.657c1.478 0 2.676-1.198 2.676-2.676s-1.198-2.676-2.676-2.676c-1.478 0-2.676 1.198-2.676 2.676s1.198 2.676 2.676 2.676z"></path>
<path fill="none" stroke="#00d8ff" style="stroke: var(--color28, #00d8ff)" stroke-linejoin="miter" stroke-linecap="butt" stroke-miterlimit="10" stroke-width="1.6667" d="M15.975 10.54c3.592 0 6.93 0.516 9.445 1.381 3.031 1.043 4.896 2.626 4.896 4.058 0 1.493-1.976 3.174-5.231 4.252-2.461 0.815-5.7 1.242-9.11 1.242-3.497 0-6.807-0.4-9.296-1.25-3.149-1.076-5.046-2.779-5.046-4.243 0-1.421 1.78-2.991 4.769-4.032 2.526-0.88 5.945-1.407 9.573-1.407z"></path>
<path fill="none" stroke="#00d8ff" style="stroke: var(--color28, #00d8ff)" stroke-linejoin="miter" stroke-linecap="butt" stroke-miterlimit="10" stroke-width="1.6667" d="M11.24 13.276c1.794-3.112 3.909-5.745 5.916-7.492 2.419-2.105 4.721-2.929 5.961-2.213 1.293 0.746 1.762 3.297 1.070 6.656-0.523 2.54-1.772 5.558-3.476 8.512-1.747 3.029-3.747 5.697-5.727 7.428-2.505 2.19-4.928 2.983-6.196 2.251-1.231-0.71-1.701-3.036-1.112-6.146 0.499-2.63 1.751-5.855 3.564-8.997z"></path>
<path fill="none" stroke="#00d8ff" style="stroke: var(--color28, #00d8ff)" stroke-linejoin="miter" stroke-linecap="butt" stroke-miterlimit="10" stroke-width="1.6667" d="M11.244 18.746c-1.8-3.109-3.025-6.256-3.536-8.867-0.615-3.146-0.18-5.553 1.059-6.27 1.292-0.748 3.736 0.119 6.301 2.397 1.939 1.722 3.93 4.311 5.638 7.263 1.752 3.026 3.065 6.091 3.575 8.671 0.646 3.265 0.123 5.76-1.144 6.493-1.23 0.712-3.48-0.042-5.88-2.106-2.027-1.745-4.196-4.44-6.013-7.579z"></path>
</symbol>
<symbol id="icon-redux" viewBox="0 0 32 32">
<path fill="#764abc" style="fill: var(--color29, #764abc)" d="M22.173 21.967c1.181-0.122 2.077-1.14 2.036-2.362s-1.059-2.199-2.28-2.199h-0.081c-1.262 0.041-2.24 1.099-2.199 2.362 0.041 0.611 0.285 1.14 0.651 1.507-1.384 2.728-3.502 4.724-6.678 6.393-2.158 1.14-4.398 1.547-6.638 1.262-1.833-0.244-3.258-1.059-4.154-2.403-1.303-1.995-1.425-4.154-0.326-6.312 0.774-1.547 1.995-2.688 2.769-3.258-0.163-0.529-0.407-1.425-0.529-2.077-5.905 4.276-5.294 10.059-3.502 12.787 1.344 2.036 4.072 3.299 7.086 3.299 0.814 0 1.629-0.081 2.443-0.285 5.212-1.018 9.162-4.113 11.402-8.715zM29.34 16.917c-3.095-3.624-7.656-5.62-12.868-5.62h-0.652c-0.367-0.733-1.14-1.222-1.995-1.222h-0.082c-1.262 0.041-2.239 1.099-2.199 2.362 0.041 1.222 1.059 2.199 2.28 2.199h0.081c0.896-0.041 1.67-0.611 1.995-1.385h0.733c3.095 0 6.027 0.896 8.674 2.647 2.036 1.344 3.502 3.095 4.316 5.213 0.692 1.71 0.651 3.38-0.081 4.805-1.14 2.158-3.054 3.339-5.579 3.339-1.629 0-3.176-0.489-3.991-0.855-0.448 0.407-1.262 1.059-1.832 1.466 1.751 0.814 3.543 1.262 5.253 1.262 3.909 0 6.8-2.158 7.9-4.317 1.181-2.362 1.099-6.434-1.955-9.896zM8.653 22.659c0.041 1.222 1.059 2.199 2.28 2.199h0.082c1.262-0.041 2.24-1.099 2.199-2.362-0.041-1.222-1.059-2.199-2.28-2.199h-0.081c-0.082 0-0.204 0-0.285 0.041-1.67-2.769-2.362-5.782-2.117-9.040 0.163-2.443 0.977-4.561 2.402-6.312 1.181-1.507 3.461-2.24 5.009-2.28 4.316-0.082 6.149 5.294 6.271 7.452 0.529 0.122 1.425 0.407 2.036 0.611-0.489-6.597-4.561-10.018-8.47-10.018-3.665 0-7.045 2.647-8.389 6.556-1.873 5.213-0.652 10.221 1.629 14.172-0.204 0.285-0.326 0.733-0.285 1.181z"></path>
</symbol>
<symbol id="icon-styled-components" viewBox="0 0 32 32">
<path fill="#fff" style="fill: var(--color1, #fff)" d="M0 0h32v32h-32v-32z"></path>
<path fill="#000" style="fill: var(--color2, #000)" d="M21.619 9.016l-0.1 0.521c-0.155 0.988-0.099 1.271 0.325 1.637l0.409 0.339-0.424 1.891c-0.253 1.128-0.564 2.073-0.761 2.384-0.169 0.268-0.367 0.663-0.409 0.875-0.071 0.253-0.311 0.508-0.677 0.733-0.324 0.184-0.96 0.677-1.411 1.073-0.36 0.324-0.608 0.523-0.743 0.608l-0.44 0.348c-0.141 0.227-0.221 0.409-0.252 0.548-0.031 0.143-0.013 0.237 0.032 0.307 0.044 0.067 0.12 0.113 0.224 0.143 0.123 0.029 0.25 0.039 0.376 0.031 0.285-0.020 0.568-0.070 0.843-0.149 0.093-0.025 0.167-0.049 0.231-0.071 0.099-0.121 0.327-0.351 0.731-0.749 1.072-1.057 1.481-1.636 1.059-1.48-0.156 0.056-0.085-0.085 0.183-0.368 0.565-0.551 0.889-1.383 1.567-3.992 0.536-2.060 0.536-2.089 0.931-2.089 0.185 0 0.709 0.032 0.709 0.032v-2.571h-2.401zM26.737 13.236c-0.085 0-0.227 0.128-0.311 0.269-0.155 0.253 0.028 0.408 2.356 1.861 1.383 0.876 2.497 1.623 2.469 1.68-0.028 0.041-1.157 0.776-2.511 1.623-2.456 1.523-2.469 1.537-2.244 1.848 0.283 0.367 0 0.493 3.188-1.496l2.315-1.481v-1.115l-2.583-1.595c-1.396-0.875-2.609-1.58-2.68-1.595zM5.291 13.392c-0.071 0-1.284 0.72-2.68 1.58l-2.611 1.595v1.115l2.596 1.623c1.44 0.888 2.653 1.623 2.709 1.623s0.169-0.128 0.283-0.283c0.169-0.268 0.027-0.381-2.357-1.891-2.271-1.425-2.511-1.623-2.284-1.777 0.141-0.099 1.213-0.763 2.371-1.481 2.639-1.623 2.497-1.511 2.285-1.849-0.084-0.14-0.227-0.267-0.311-0.253h-0.001zM16.869 13.423c-0.389-0.003-1.227 0.591-3.733 2.637-0.108 0.257-0.117 0.435-0.068 0.549 0.032 0.079 0.091 0.133 0.172 0.173 0.080 0.040 0.184 0.064 0.299 0.073 0.228 0.020 0.497-0.016 0.715-0.059l0.147-0.033c0.050-0.067 0.116-0.121 0.192-0.157 0.155-0.085 0.804-0.677 1.453-1.312 1.143-1.157 1.411-1.68 0.945-1.849-0.038-0.015-0.080-0.023-0.121-0.023zM19.797 14.227c-0.343 0.009-0.96 0.407-2.017 1.251-0.531 0.431-0.867 0.663-1.047 0.711l-0.699 0.552c-0.263 0.48-0.301 0.777-0.232 0.941 0.017 0.040 0.043 0.077 0.074 0.108s0.069 0.055 0.11 0.071c0.102 0.040 0.21 0.061 0.32 0.060 0.262-0.003 0.522-0.041 0.773-0.113 0.131-0.035 0.261-0.076 0.388-0.123l0.039-0.016 0.071-0.037c0.133-0.172 0.44-0.496 0.824-0.869 1.213-1.171 1.833-2.003 1.707-2.313-0.057-0.151-0.156-0.227-0.311-0.221zM16.565 15.667c-0.099 0.011-0.32 0.181-0.719 0.531-0.576 0.509-1.204 0.803-1.421 0.672-0.050 0.011-0.101 0.022-0.152 0.032-0.221 0.044-0.497 0.080-0.744 0.060-0.116-0.007-0.23-0.036-0.336-0.084-0.1-0.046-0.18-0.126-0.224-0.227-0.049-0.12-0.049-0.269 0.007-0.46l-0.867 0.712-1.961 1.623v2.631l6.427-5.063c-0.001-0.055 0.006-0.111 0.021-0.164 0.049-0.179 0.047-0.269-0.031-0.261v-0.001zM19.331 16.519c-0.097 0-0.26 0.137-0.52 0.413-0.353 0.377-0.909 0.743-1.204 0.817l-0.045 0.024c-0.048 0.020-0.097 0.039-0.147 0.056-0.080 0.027-0.184 0.059-0.304 0.091-0.24 0.065-0.539 0.125-0.805 0.119-0.126-0-0.25-0.025-0.367-0.072-0.11-0.045-0.198-0.131-0.245-0.24-0.077-0.185-0.047-0.445 0.123-0.815l-5.669 4.465v1.607h2.491l5.283-4.149c0.137-0.152 0.344-0.36 0.623-0.62 0.747-0.692 0.916-0.931 0.916-1.284 0-0.275-0.031-0.413-0.128-0.413v0.001zM20.588 19.119l-0.452 0.451c-0.253 0.24-0.705 0.536-1.015 0.663l-0.061 0.027-0.004 0.007-0.013 0.013c-0.012 0.009-0.017 0.011-0.027 0.015-0.123 0.047-0.249 0.088-0.376 0.124-0.282 0.082-0.573 0.134-0.867 0.153-0.139 0.009-0.278-0.003-0.413-0.036-0.117-0.026-0.221-0.094-0.291-0.192-0.064-0.099-0.083-0.231-0.047-0.393 0.029-0.116 0.071-0.228 0.127-0.333l-4.263 3.368h5.669l0.677-0.776c0.931-1.085 1.355-1.861 1.355-2.525v-0.564z"></path>
</symbol>
<symbol id="icon-typescript" viewBox="0 0 32 32">
<path fill="#007acc" style="fill: var(--color30, #007acc)" d="M0 16v-16h32v32h-32z"></path>
<path fill="#fff" style="fill: var(--color1, #fff)" d="M7.016 16.056v1.304h4.16v11.84h2.952v-11.84h4.16v-1.28c0-0.72 0-1.304-0.032-1.32 0-0.024-2.536-0.032-5.616-0.032l-5.6 0.024v1.312l-0.024-0.008zM25.712 14.72c0.816 0.192 1.44 0.56 2 1.144 0.296 0.32 0.736 0.88 0.768 1.024 0 0.048-1.384 0.984-2.224 1.504-0.032 0.024-0.16-0.112-0.288-0.32-0.416-0.592-0.84-0.848-1.504-0.896-0.96-0.064-1.6 0.44-1.6 1.28 0 0.256 0.048 0.4 0.144 0.608 0.216 0.44 0.616 0.704 1.856 1.248 2.288 0.984 3.28 1.632 3.88 2.56 0.68 1.040 0.832 2.672 0.376 3.896-0.512 1.336-1.76 2.24-3.544 2.536-0.56 0.096-1.84 0.080-2.44-0.024-1.28-0.24-2.504-0.88-3.256-1.704-0.296-0.32-0.864-1.176-0.832-1.232l0.304-0.192 1.2-0.696 0.904-0.528 0.208 0.28c0.264 0.416 0.856 0.976 1.2 1.168 1.040 0.536 2.432 0.464 3.12-0.16 0.296-0.272 0.424-0.56 0.424-0.96 0-0.368-0.056-0.536-0.24-0.816-0.256-0.352-0.768-0.64-2.208-1.28-1.656-0.704-2.36-1.152-3.016-1.84-0.376-0.416-0.72-1.064-0.88-1.6-0.12-0.464-0.16-1.6-0.048-2.056 0.344-1.6 1.552-2.72 3.28-3.040 0.56-0.112 1.88-0.064 2.432 0.080l-0.016 0.016z"></path>
</symbol>
<symbol id="icon-vite" viewBox="0 0 32 32">
<path fill="#764abc" style="fill: var(--color29, #764abc)" d="M29.884 6.146l-13.142 23.5c-0.271 0.485-0.968 0.488-1.244 0.005l-13.402-23.503c-0.3-0.526 0.15-1.163 0.746-1.057l13.156 2.352c0.084 0.015 0.17 0.015 0.254-0l12.881-2.348c0.594-0.108 1.046 0.524 0.752 1.051z"></path>
<path fill="#f7df1e" style="fill: var(--color16, #f7df1e)" d="M22.264 2.007l-9.725 1.906c-0.078 0.015-0.148 0.056-0.2 0.115s-0.083 0.135-0.088 0.214l-0.598 10.104c-0.014 0.238 0.204 0.423 0.437 0.369l2.708-0.625c0.253-0.059 0.482 0.165 0.43 0.419l-0.804 3.939c-0.054 0.265 0.195 0.492 0.454 0.413l1.672-0.508c0.259-0.079 0.508 0.149 0.454 0.414l-1.278 6.188c-0.080 0.387 0.435 0.598 0.649 0.266l0.143-0.222 7.925-15.815c0.133-0.265-0.096-0.567-0.387-0.511l-2.787 0.538c-0.262 0.050-0.485-0.193-0.411-0.45l1.819-6.306c0.074-0.257-0.15-0.501-0.412-0.45z"></path>
</symbol>
<symbol id="icon-webpack" viewBox="0 0 32 32">
<path fill="#fff" style="fill: var(--color1, #fff)" d="M16 0.005l14.124 7.989v15.984l-14.124 7.989-14.124-7.989v-15.984l14.124-7.989z"></path>
<path fill="#8ed6fb" style="fill: var(--color31, #8ed6fb)" d="M27.603 23.425l-11.134 6.305v-4.903l6.939-3.822 4.195 2.42zM28.365 22.737v-13.175l-4.072 2.35v8.474l4.072 2.35zM4.354 23.425l11.134 6.3v-4.903l-6.94-3.816-4.195 2.42zM3.592 22.737v-13.175l4.072 2.35v8.474l-4.072 2.35zM4.066 8.709l11.422-6.46v4.744l-7.377 4.056-4.045-2.34zM27.885 8.709l-11.417-6.46v4.744l7.371 4.061 4.045-2.345z"></path>
<path fill="#1c78c0" style="fill: var(--color32, #1c78c0)" d="M15.488 23.707l-6.844-3.768v-7.456l6.844 3.949v7.275zM16.469 23.707l6.844-3.763v-7.462l-6.844 3.949v7.275zM9.103 11.619l6.876-3.779 6.87 3.779-6.87 3.965-6.876-3.965z"></path>
</symbol>
<symbol id="icon-burger" viewBox="0 0 32 32">
 <path fill="none" stroke-linejoin="round" stroke-linecap="round" stroke-miterlimit="4" stroke-width="1.7778" d="M8.889 16h14.222"></path>
<path fill="none" stroke-linejoin="round" stroke-linecap="round" stroke-miterlimit="4" stroke-width="1.7778" d="M8.889 10.667h14.222"></path>
<path fill="none" stroke-linejoin="round" stroke-linecap="round" stroke-miterlimit="4" stroke-width="1.7778" d="M8.889 21.333h14.222"></path>
</symbol>
<symbol id="icon-close" viewBox="0 0 32 32">
<path fill="none" stroke-linejoin="round" stroke-linecap="round" stroke-miterlimit="4" stroke-width="1.7778" d="M21.333 10.667l-10.667 10.667"></path>
<path fill="none" stroke-linejoin="round" stroke-linecap="round" stroke-miterlimit="4" stroke-width="1.7778" d="M10.667 10.667l10.667 10.667"></path>
</symbol>
</defs>
</svg>
