<svg aria-hidden="true" style="position: absolute; width: 0; height: 0; overflow: hidden;" version="1.1" xmlns="http://www.w3.org/2000/svg" xmlns:xlink="http://www.w3.org/1999/xlink">
<defs>
<symbol id="icon-c-Icon" viewBox="0 0 32 32">
<path fill="none" stroke="#d1d5db" style="stroke: var(--color1, #d1d5db)" stroke-linejoin="round" stroke-linecap="round" stroke-miterlimit="4" stroke-width="3.7647" d="M16 28.549c6.931 0 12.549-5.618 12.549-12.549s-5.618-12.549-12.549-12.549c-6.931 0-12.549 5.618-12.549 12.549s5.618 12.549 12.549 12.549z"></path>
<path fill="none" stroke="#d1d5db" style="stroke: var(--color1, #d1d5db)" stroke-linejoin="round" stroke-linecap="round" stroke-miterlimit="4" stroke-width="3.7647" d="M19.765 12.68c-0.674-0.765-1.566-1.306-2.555-1.551s-2.030-0.184-2.984 0.176c-0.954 0.361-1.775 1.003-2.355 1.842s-0.89 1.834-0.89 2.854c0 1.020 0.31 2.015 0.89 2.854s1.401 1.481 2.355 1.842c0.954 0.36 1.995 0.422 2.984 0.176s1.881-0.787 2.555-1.551"></path>
</symbol>
<symbol id="icon-call-Icon" viewBox="0 0 32 32">
<path fill="none" stroke="#d1d5db" style="stroke: var(--color1, #d1d5db)" stroke-linejoin="round" stroke-linecap="round" stroke-miterlimit="4" stroke-width="2" d="M29.333 22.56v4c0.002 0.371-0.075 0.739-0.223 1.079s-0.367 0.646-0.641 0.897c-0.274 0.251-0.597 0.442-0.948 0.561s-0.724 0.163-1.094 0.13c-4.103-0.446-8.044-1.848-11.507-4.093-3.222-2.047-5.953-4.778-8-8-2.253-3.478-3.656-7.439-4.093-11.56-0.033-0.369 0.010-0.74 0.129-1.091s0.308-0.673 0.558-0.947c0.25-0.273 0.553-0.492 0.892-0.641s0.705-0.227 1.075-0.227h4c0.647-0.006 1.274 0.223 1.765 0.645s0.811 1.008 0.902 1.649c0.169 1.28 0.482 2.537 0.933 3.747 0.179 0.477 0.218 0.996 0.112 1.494s-0.353 0.956-0.712 1.319l-1.693 1.693c1.898 3.338 4.662 6.102 8 8l1.693-1.693c0.363-0.358 0.82-0.606 1.319-0.712s1.017-0.067 1.494 0.112c1.21 0.451 2.467 0.764 3.747 0.933 0.648 0.091 1.239 0.418 1.662 0.917s0.648 1.136 0.631 1.79z"></path>
</symbol>
<symbol id="icon-github" viewBox="0 0 32 32">
<path d="M16 2.667c-1.751 0-3.485 0.345-5.102 1.015s-3.088 1.652-4.326 2.89c-2.5 2.501-3.905 5.892-3.905 9.428 0 5.893 3.827 10.893 9.12 12.667 0.667 0.107 0.88-0.307 0.88-0.667v-2.253c-3.693 0.8-4.48-1.787-4.48-1.787-0.613-1.547-1.48-1.96-1.48-1.96-1.213-0.827 0.093-0.8 0.093-0.8 1.333 0.093 2.040 1.373 2.040 1.373 1.16 2.027 3.12 1.427 3.88 1.107 0.12-0.867 0.467-1.453 0.84-1.787-2.96-0.333-6.067-1.48-6.067-6.56 0-1.48 0.507-2.667 1.373-3.613-0.133-0.333-0.6-1.72 0.133-3.52 0 0 1.12-0.36 3.667 1.36 1.053-0.293 2.2-0.44 3.333-0.44s2.28 0.147 3.333 0.44c2.547-1.72 3.667-1.36 3.667-1.36 0.733 1.8 0.267 3.187 0.133 3.52 0.867 0.947 1.373 2.133 1.373 3.613 0 5.093-3.12 6.213-6.093 6.547 0.48 0.413 0.92 1.227 0.92 2.467v3.653c0 0.36 0.213 0.787 0.893 0.667 5.293-1.787 9.107-6.773 9.107-12.667 0-1.751-0.345-3.485-1.015-5.102s-1.652-3.088-2.89-4.326-2.708-2.22-4.326-2.89c-1.618-0.67-3.351-1.015-5.102-1.015z"></path>
</symbol>
<symbol id="icon-heart" viewBox="0 0 32 32">
<path fill="#14a800" d="M29.415 4.545c-1.676-1.676-3.894-2.591-6.262-2.591s-4.593 0.923-6.268 2.598l-0.875 0.875-0.889-0.889c-1.676-1.676-3.908-2.605-6.275-2.605-2.361 0-4.586 0.923-6.255 2.591-1.676 1.676-2.598 3.901-2.591 6.268 0 2.368 0.929 4.586 2.605 6.262l12.74 12.74c0.176 0.176 0.414 0.271 0.644 0.271s0.468-0.088 0.644-0.265l12.767-12.72c1.676-1.676 2.598-3.901 2.598-6.268 0.007-2.368-0.909-4.593-2.585-6.268zM28.113 15.786l-12.123 12.075-12.096-12.096c-1.33-1.33-2.062-3.094-2.062-4.973s0.726-3.643 2.056-4.966c1.323-1.323 3.087-2.056 4.959-2.056 1.879 0 3.65 0.733 4.979 2.062l1.533 1.533c0.36 0.36 0.936 0.36 1.296 0l1.52-1.52c1.33-1.33 3.1-2.062 4.973-2.062s3.636 0.733 4.966 2.056c1.33 1.33 2.056 3.094 2.056 4.973 0.007 1.879-0.726 3.643-2.056 4.973z"></path>
</symbol>
<symbol id="icon-linkedin" viewBox="0 0 32 32">
<path  d="M16.667 4c-6.996 0-12.667 5.671-12.667 12.667s5.671 12.667 12.667 12.667c6.996 0 12.667-5.671 12.667-12.667s-5.671-12.667-12.667-12.667zM13.566 21.917h-2.565v-8.255h2.565v8.255zM12.268 12.649c-0.81 0-1.334-0.574-1.334-1.284 0-0.724 0.54-1.281 1.367-1.281s1.334 0.557 1.35 1.281c0 0.71-0.522 1.284-1.383 1.284zM22.934 21.917h-2.565v-4.575c0-1.065-0.372-1.788-1.3-1.788-0.709 0-1.129 0.489-1.315 0.961-0.069 0.168-0.086 0.405-0.086 0.641v4.759h-2.566v-5.621c0-1.030-0.033-1.892-0.067-2.634h2.229l0.117 1.147h0.051c0.338-0.538 1.165-1.333 2.549-1.333 1.688 0 2.953 1.131 2.953 3.561v4.881z"></path>
</symbol>
<symbol id="icon-mail-Icon" viewBox="0 0 32 32">
<path fill="none" stroke="#d1d5db" style="stroke: var(--color1, #d1d5db)" stroke-linejoin="round" stroke-linecap="round" stroke-miterlimit="4" stroke-width="2" d="M26.666 5.333h-21.333c-1.473 0-2.667 1.194-2.667 2.667v16c0 1.473 1.194 2.667 2.667 2.667h21.333c1.473 0 2.667-1.194 2.667-2.667v-16c0-1.473-1.194-2.667-2.667-2.667z"></path>
<path fill="none" stroke="#d1d5db" style="stroke: var(--color1, #d1d5db)" stroke-linejoin="round" stroke-linecap="round" stroke-miterlimit="4" stroke-width="2" d="M29.333 9.334l-11.96 7.6c-0.412 0.258-0.888 0.395-1.373 0.395s-0.962-0.137-1.373-0.395l-11.96-7.6"></path>
</symbol>
<symbol id="icon-locate-Icon" viewBox="0 0 32 32">
<path fill="none" stroke="#d1d5db" style="stroke: var(--color1, #d1d5db)" stroke-linejoin="round" stroke-linecap="round" stroke-miterlimit="4" stroke-width="2.6667" d="M26.667 13.333c0 8-10.667 16-10.667 16s-10.667-8-10.667-16c0-2.829 1.124-5.542 3.124-7.542s4.713-3.124 7.542-3.124c2.829 0 5.542 1.124 7.543 3.124s3.124 4.713 3.124 7.542z"></path>
<path fill="none" stroke="#d1d5db" style="stroke: var(--color1, #d1d5db)" stroke-linejoin="round" stroke-linecap="round" stroke-miterlimit="4" stroke-width="2.6667" d="M16 17.333c2.209 0 4-1.791 4-4s-1.791-4-4-4-4 1.791-4 4c0 2.209 1.791 4 4 4z"></path>
</symbol>
<symbol id="icon-telegram" viewBox="0 0 32 32">
<path d="M16 2.667c-7.36 0-13.333 5.973-13.333 13.333s5.973 13.333 13.333 13.333c7.36 0 13.333-5.973 13.333-13.333s-5.973-13.333-13.333-13.333zM22.187 11.733c-0.2 2.107-1.067 7.227-1.507 9.587-0.187 1-0.56 1.333-0.907 1.373-0.773 0.067-1.36-0.507-2.107-1-1.173-0.773-1.84-1.253-2.973-2-1.32-0.867-0.467-1.347 0.293-2.12 0.2-0.2 3.613-3.307 3.68-3.587 0.009-0.042 0.008-0.086-0.004-0.128s-0.033-0.080-0.063-0.112c-0.080-0.067-0.187-0.040-0.28-0.027-0.12 0.027-1.987 1.267-5.627 3.72-0.533 0.36-1.013 0.547-1.44 0.533-0.48-0.013-1.387-0.267-2.067-0.493-0.84-0.267-1.493-0.413-1.44-0.88 0.027-0.24 0.36-0.48 0.987-0.733 3.893-1.693 6.48-2.813 7.773-3.347 3.707-1.547 4.467-1.813 4.973-1.813 0.107 0 0.36 0.027 0.52 0.16 0.133 0.107 0.173 0.253 0.187 0.36-0.013 0.080 0.013 0.32 0 0.507z"></path>
</symbol>
</defs>
</svg>
